<svg xmlns="http://www.w3.org/2000/svg" xmlns:xlink="http://www.w3.org/1999/xlink" xmlns:lucid="lucid" width="1263.27" height="193.22"><g transform="translate(1608.7329720058756 -397.7650307161873)" lucid:page-tab-id="0_0"><path d="M-1588.73 463.57h113.96v61.6h-113.96z" fill="none"/><use xlink:href="#a" transform="matrix(1,0,0,1,-1568.7329720058756,486.5700307161873) translate(0 14.6)"/><use xlink:href="#b" transform="matrix(1,0,0,1,-1568.7329720058756,486.5700307161873) translate(35.95 14.6)"/><path d="M-914.77 458.77h120.75v71.2h-120.75z" fill="none"/><use xlink:href="#c" transform="matrix(1,0,0,1,-894.7729720058755,481.7700307161873) translate(0.12777777777778 21.2)"/><path d="M-634.02 417.76h268.56v61.62h-268.56z" fill="none"/><use xlink:href="#d" transform="matrix(1,0,0,1,-614.018527561431,440.7650307161873) translate(0 14.6)"/><use xlink:href="#e" transform="matrix(1,0,0,1,-614.018527561431,440.7650307161873) translate(74.9 14.6)"/><use xlink:href="#f" transform="matrix(1,0,0,1,-614.018527561431,440.7650307161873) translate(140.75 14.6)"/><g transform="matrix(1,0,0,1,-614.018527561431,440.7650307161873)"><a xlink:href="https://srinispacestories.blogspot.com/p/sherlock-holmes-collections.html" target="_blank"><path class="lucid-link lucid-hotspot lucid-overlay-hotspot" fill-opacity="0" d="M0 .2h74.9v21.6H0z"/></a><a xlink:href="https://srinispacestories.blogspot.com/p/sherlock-holmes-collections.html" target="_blank"><path class="lucid-link lucid-hotspot lucid-overlay-hotspot" fill-opacity="0" d="M74.9.2h65.85v21.6H74.9z"/></a><a xlink:href="https://srinispacestories.blogspot.com/p/sherlock-holmes-collections.html" target="_blank"><path class="lucid-link lucid-hotspot lucid-overlay-hotspot" fill-opacity="0" d="M140.75.2h87.8v21.6h-87.8z"/></a></g><path d="M-634.02 509.38h166.86v61.6h-166.86z" fill="none"/><use xlink:href="#g" transform="matrix(1,0,0,1,-614.018527561431,529.3750307161873) translate(0 14.6)"/><use xlink:href="#h" transform="matrix(1,0,0,1,-614.018527561431,529.3750307161873) translate(43.95 14.6)"/><path d="M-1314.77 494.38a40 40 0 0 1 40-40h160a40 40 0 0 1 40 40 40 40 0 0 1-40 40h-160a40 40 0 0 1-40-40z" fill="#fff"/><use xlink:href="#i" transform="matrix(1,0,0,1,-1314.7729720058755,454.3750307161873) translate(53.27777777777777 44)"/><use xlink:href="#j" transform="matrix(1,0,0,1,-1314.7729720058755,454.3750307161873) translate(119.05555555555554 44)"/><g transform="matrix(1,0,0,1,-1314.7729720058755,454.3750307161873)"><a xlink:href="https://srinispacestories.blogspot.com/" target="_blank"><path class="lucid-link lucid-hotspot lucid-overlay-hotspot" fill-opacity="0" d="M53.28 28h65.78v24H53.28z"/></a><a xlink:href="https://srinispacestories.blogspot.com/" target="_blank"><path class="lucid-link lucid-hotspot lucid-overlay-hotspot" fill-opacity="0" d="M119.06 28h67.67v24h-67.67z"/></a></g><path d="M-791.52 494.43l5.7.1 7.2.46 6.46.67 5.87.87 5.44 1.03 5.12 1.2 4.9 1.37 4.8 1.56 4.84 1.8 5.08 2.13 5.7 2.7 7.8 4.08 25 13.83 5.7 2.7 5.08 2.13 4.84 1.8 4.8 1.56 4.9 1.37 5.12 1.18 5.43 1.04 5.88.87 6.45.66 7.2.45 5.7.13" stroke="#ffe342" stroke-width="5" stroke-linejoin="round" fill="none"/><path d="M-791.4 491.95l-.1 4.95-2.52-.05v-4.95zM-634.02 537.7v4.95h-2.56v-4.94z" stroke="#ffe342" stroke-width=".05" fill="#ffe342"/><path d="M-1072.27 494.38h155" stroke="#ffe342" stroke-width="5" stroke-linejoin="round" fill="none"/><path d="M-1072.2 496.85h-2.77l.2-2.48-.2-2.47h2.76zM-914.77 496.85h-2.57v-4.95h2.57z" stroke="#ffe342" stroke-width=".05" fill="#ffe342"/><path d="M-791.52 494.32l5.7-.1 7.2-.46 6.46-.68 5.87-.87 5.44-1.02 5.12-1.2 4.9-1.37 4.8-1.55 4.84-1.8 5.08-2.13 5.7-2.7 7.8-4.1 25-13.8 5.7-2.7 5.08-2.13 4.84-1.8 4.8-1.57 4.9-1.37 5.12-1.2 5.43-1.03 5.88-.87 6.45-.67 7.2-.46 5.7-.12" stroke="#ffe342" stroke-width="5" stroke-linejoin="round" fill="none"/><path d="M-791.4 496.8l-2.62.05v-4.95l2.52-.05zM-634.02 451.05h-2.56v-4.95h2.56z" stroke="#ffe342" stroke-width=".05" fill="#ffe342"/><path d="M-1317.28 494.38h-155" stroke="#1071e5" stroke-width="5" stroke-linejoin="round" fill="none"/><path d="M-1314.77 494.38l.2 2.47h-2.77v-4.95h2.76zM-1472.2 496.85h-2.57v-4.95h2.56z" stroke="#1071e5" stroke-width=".05" fill="#1071e5"/><path d="M-1588.73 463.57h113.96v61.6h-113.96z" fill="none"/><use xlink:href="#a" transform="matrix(1,0,0,1,-1568.7329720058756,486.5700307161873) translate(0 14.6)"/><use xlink:href="#b" transform="matrix(1,0,0,1,-1568.7329720058756,486.5700307161873) translate(35.95 14.6)"/><path d="M-914.77 458.77h120.75v71.2h-120.75z" fill="none"/><use xlink:href="#c" transform="matrix(1,0,0,1,-894.7729720058755,481.7700307161873) translate(0.12777777777778 21.2)"/><path d="M-634.02 417.76h268.56v61.62h-268.56z" fill="none"/><use xlink:href="#d" transform="matrix(1,0,0,1,-614.018527561431,440.7650307161873) translate(0 14.6)"/><use xlink:href="#e" transform="matrix(1,0,0,1,-614.018527561431,440.7650307161873) translate(74.9 14.6)"/><use xlink:href="#f" transform="matrix(1,0,0,1,-614.018527561431,440.7650307161873) translate(140.75 14.6)"/><g transform="matrix(1,0,0,1,-614.018527561431,440.7650307161873)"><a xlink:href="https://srinispacestories.blogspot.com/p/sherlock-holmes-collections.html" target="_blank"><path class="lucid-link lucid-hotspot lucid-overlay-hotspot" fill-opacity="0" d="M0 .2h74.9v21.6H0z"/></a><a xlink:href="https://srinispacestories.blogspot.com/p/sherlock-holmes-collections.html" target="_blank"><path class="lucid-link lucid-hotspot lucid-overlay-hotspot" fill-opacity="0" d="M74.9.2h65.85v21.6H74.9z"/></a><a xlink:href="https://srinispacestories.blogspot.com/p/sherlock-holmes-collections.html" target="_blank"><path class="lucid-link lucid-hotspot lucid-overlay-hotspot" fill-opacity="0" d="M140.75.2h87.8v21.6h-87.8z"/></a></g><path d="M-634.02 509.38h166.86v61.6h-166.86z" fill="none"/><use xlink:href="#g" transform="matrix(1,0,0,1,-614.018527561431,529.3750307161873) translate(0 14.6)"/><use xlink:href="#h" transform="matrix(1,0,0,1,-614.018527561431,529.3750307161873) translate(43.95 14.6)"/><path d="M-1314.77 494.38a40 40 0 0 1 40-40h160a40 40 0 0 1 40 40 40 40 0 0 1-40 40h-160a40 40 0 0 1-40-40z" fill="#fff"/><use xlink:href="#i" transform="matrix(1,0,0,1,-1314.7729720058755,454.3750307161873) translate(53.27777777777777 44)"/><use xlink:href="#j" transform="matrix(1,0,0,1,-1314.7729720058755,454.3750307161873) translate(119.05555555555554 44)"/><g transform="matrix(1,0,0,1,-1314.7729720058755,454.3750307161873)"><a xlink:href="https://srinispacestories.blogspot.com/" target="_blank"><path class="lucid-link lucid-hotspot lucid-overlay-hotspot" fill-opacity="0" d="M53.28 28h65.78v24H53.28z"/></a><a xlink:href="https://srinispacestories.blogspot.com/" target="_blank"><path class="lucid-link lucid-hotspot lucid-overlay-hotspot" fill-opacity="0" d="M119.06 28h67.67v24h-67.67z"/></a></g><path d="M-791.52 494.43l5.7.1 7.2.46 6.46.67 5.87.87 5.44 1.03 5.12 1.2 4.9 1.37 4.8 1.56 4.84 1.8 5.08 2.13 5.7 2.7 7.8 4.08 25 13.83 5.7 2.7 5.08 2.13 4.84 1.8 4.8 1.56 4.9 1.37 5.12 1.18 5.43 1.04 5.88.87 6.45.66 7.2.45 5.7.13" stroke="#ffe342" stroke-width="5" stroke-linejoin="round" fill="none"/><path d="M-791.4 491.95l-.1 4.95-2.52-.05v-4.95zM-634.02 537.7v4.95h-2.56v-4.94z" stroke="#ffe342" stroke-width=".05" fill="#ffe342"/><path d="M-1072.27 494.38h155" stroke="#ffe342" stroke-width="5" stroke-linejoin="round" fill="none"/><path d="M-1072.2 496.85h-2.77l.2-2.48-.2-2.47h2.76zM-914.77 496.85h-2.57v-4.95h2.57z" stroke="#ffe342" stroke-width=".05" fill="#ffe342"/><path d="M-791.52 494.32l5.7-.1 7.2-.46 6.46-.68 5.87-.87 5.44-1.02 5.12-1.2 4.9-1.37 4.8-1.55 4.84-1.8 5.08-2.13 5.7-2.7 7.8-4.1 25-13.8 5.7-2.7 5.08-2.13 4.84-1.8 4.8-1.57 4.9-1.37 5.12-1.2 5.43-1.03 5.88-.87 6.45-.67 7.2-.46 5.7-.12" stroke="#ffe342" stroke-width="5" stroke-linejoin="round" fill="none"/><path d="M-791.4 496.8l-2.62.05v-4.95l2.52-.05zM-634.02 451.05h-2.56v-4.95h2.56z" stroke="#ffe342" stroke-width=".05" fill="#ffe342"/><path d="M-1317.28 494.38h-155" stroke="#1071e5" stroke-width="5" stroke-linejoin="round" fill="none"/><path d="M-1314.77 494.38l.2 2.47h-2.77v-4.95h2.76zM-1472.2 496.85h-2.57v-4.95h2.56z" stroke="#1071e5" stroke-width=".05" fill="#1071e5"/><defs><path d="M63-220v92h138v28H63V0H30v-248h175v28H63" id="k"/><path d="M84 4C-5 8 30-112 23-190h32v120c0 31 7 50 39 49 72-2 45-101 50-169h31l1 190h-30c-1-10 1-25-2-33-11 22-28 36-60 37" id="l"/><path d="M117-194c89-4 53 116 60 194h-32v-121c0-31-8-49-39-48C34-167 62-67 57 0H25l-1-190h30c1 10-1 24 2 32 11-22 29-35 61-36" id="m"/><g id="a"><use transform="matrix(0.05,0,0,0.05,0,0)" xlink:href="#k"/><use transform="matrix(0.05,0,0,0.05,10.950000000000001,0)" xlink:href="#l"/><use transform="matrix(0.05,0,0,0.05,20.950000000000003,0)" xlink:href="#m"/></g><path d="M101-234c-31-9-42 10-38 44h38v23H63V0H32v-167H5v-23h27c-7-52 17-82 69-68v24" id="n"/><path d="M141-36C126-15 110 5 73 4 37 3 15-17 15-53c-1-64 63-63 125-63 3-35-9-54-41-54-24 1-41 7-42 31l-33-3c5-37 33-52 76-52 45 0 72 20 72 64v82c-1 20 7 32 28 27v20c-31 9-61-2-59-35zM48-53c0 20 12 33 32 33 41-3 63-29 60-74-43 2-92-5-92 41" id="o"/><path d="M96-169c-40 0-48 33-48 73s9 75 48 75c24 0 41-14 43-38l32 2c-6 37-31 61-74 61-59 0-76-41-82-99-10-93 101-131 147-64 4 7 5 14 7 22l-32 3c-4-21-16-35-41-35" id="p"/><path d="M59-47c-2 24 18 29 38 22v24C64 9 27 4 27-40v-127H5v-23h24l9-43h21v43h35v23H59v120" id="q"/><path d="M135-143c-3-34-86-38-87 0 15 53 115 12 119 90S17 21 10-45l28-5c4 36 97 45 98 0-10-56-113-15-118-90-4-57 82-63 122-42 12 7 21 19 24 35" id="r"/><g id="b"><use transform="matrix(0.05,0,0,0.05,0,0)" xlink:href="#n"/><use transform="matrix(0.05,0,0,0.05,5,0)" xlink:href="#o"/><use transform="matrix(0.05,0,0,0.05,15,0)" xlink:href="#p"/><use transform="matrix(0.05,0,0,0.05,24,0)" xlink:href="#q"/><use transform="matrix(0.05,0,0,0.05,29,0)" xlink:href="#r"/></g><path d="M185-189c-5-48-123-54-124 2 14 75 158 14 163 119 3 78-121 87-175 55-17-10-28-26-33-46l33-7c5 56 141 63 141-1 0-78-155-14-162-118-5-82 145-84 179-34 5 7 8 16 11 25" id="s"/><path d="M100-194c62-1 85 37 85 99 1 63-27 99-86 99S16-35 15-95c0-66 28-99 85-99zM99-20c44 1 53-31 53-75 0-43-8-75-51-75s-53 32-53 75 10 74 51 75" id="t"/><path d="M114-163C36-179 61-72 57 0H25l-1-190h30c1 12-1 29 2 39 6-27 23-49 58-41v29" id="u"/><path d="M24-231v-30h32v30H24zM24 0v-190h32V0H24" id="v"/><path d="M100-194c63 0 86 42 84 106H49c0 40 14 67 53 68 26 1 43-12 49-29l28 8c-11 28-37 45-77 45C44 4 14-33 15-96c1-61 26-98 85-98zm52 81c6-60-76-77-97-28-3 7-6 17-6 28h103" id="w"/><g id="c"><use transform="matrix(0.07222222222222222,0,0,0.07222222222222222,0,0)" xlink:href="#s"/><use transform="matrix(0.07222222222222222,0,0,0.07222222222222222,17.333333333333332,0)" xlink:href="#q"/><use transform="matrix(0.07222222222222222,0,0,0.07222222222222222,24.555555555555554,0)" xlink:href="#t"/><use transform="matrix(0.07222222222222222,0,0,0.07222222222222222,38.99999999999999,0)" xlink:href="#u"/><use transform="matrix(0.07222222222222222,0,0,0.07222222222222222,47.59444444444444,0)" xlink:href="#v"/><use transform="matrix(0.07222222222222222,0,0,0.07222222222222222,53.3,0)" xlink:href="#w"/><use transform="matrix(0.07222222222222222,0,0,0.07222222222222222,67.74444444444444,0)" xlink:href="#r"/></g><path d="M106-169C34-169 62-67 57 0H25v-261h32l-1 103c12-21 28-36 61-36 89 0 53 116 60 194h-32v-121c2-32-8-49-39-48" id="x"/><path d="M24 0v-261h32V0H24" id="y"/><path d="M143 0L79-87 56-68V0H24v-261h32v163l83-92h37l-77 82L181 0h-38" id="z"/><g id="d"><use transform="matrix(0.05,0,0,0.05,0,0)" xlink:href="#s"/><use transform="matrix(0.05,0,0,0.05,12,0)" xlink:href="#x"/><use transform="matrix(0.05,0,0,0.05,22,0)" xlink:href="#w"/><use transform="matrix(0.05,0,0,0.05,32,0)" xlink:href="#u"/><use transform="matrix(0.05,0,0,0.05,37.95,0)" xlink:href="#y"/><use transform="matrix(0.05,0,0,0.05,41.900000000000006,0)" xlink:href="#t"/><use transform="matrix(0.05,0,0,0.05,51.900000000000006,0)" xlink:href="#p"/><use transform="matrix(0.05,0,0,0.05,60.900000000000006,0)" xlink:href="#z"/><path fill="#8080ff" d="M-.9 1.25h76.7v1.32H-.9z"/></g><path d="M197 0v-115H63V0H30v-248h33v105h134v-105h34V0h-34" id="A"/><path d="M210-169c-67 3-38 105-44 169h-31v-121c0-29-5-50-35-48C34-165 62-65 56 0H25l-1-190h30c1 10-1 24 2 32 10-44 99-50 107 0 11-21 27-35 58-36 85-2 47 119 55 194h-31v-121c0-29-5-49-35-48" id="B"/><g id="e"><use transform="matrix(0.05,0,0,0.05,0,0)" xlink:href="#A"/><use transform="matrix(0.05,0,0,0.05,12.950000000000001,0)" xlink:href="#t"/><use transform="matrix(0.05,0,0,0.05,22.950000000000003,0)" xlink:href="#y"/><use transform="matrix(0.05,0,0,0.05,26.900000000000002,0)" xlink:href="#B"/><use transform="matrix(0.05,0,0,0.05,41.85,0)" xlink:href="#w"/><use transform="matrix(0.05,0,0,0.05,51.85,0)" xlink:href="#r"/><path fill="#8080ff" d="M-.9 1.25h67.65v1.32H-.9z"/></g><path d="M212-179c-10-28-35-45-73-45-59 0-87 40-87 99 0 60 29 101 89 101 43 0 62-24 78-52l27 14C228-24 195 4 139 4 59 4 22-46 18-125c-6-104 99-153 187-111 19 9 31 26 39 46" id="C"/><g id="f"><use transform="matrix(0.05,0,0,0.05,0,0)" xlink:href="#C"/><use transform="matrix(0.05,0,0,0.05,12.950000000000001,0)" xlink:href="#t"/><use transform="matrix(0.05,0,0,0.05,22.950000000000003,0)" xlink:href="#y"/><use transform="matrix(0.05,0,0,0.05,26.900000000000002,0)" xlink:href="#y"/><use transform="matrix(0.05,0,0,0.05,30.85,0)" xlink:href="#w"/><use transform="matrix(0.05,0,0,0.05,40.85,0)" xlink:href="#p"/><use transform="matrix(0.05,0,0,0.05,49.85,0)" xlink:href="#q"/><use transform="matrix(0.05,0,0,0.05,54.85,0)" xlink:href="#v"/><use transform="matrix(0.05,0,0,0.05,58.800000000000004,0)" xlink:href="#t"/><use transform="matrix(0.05,0,0,0.05,68.80000000000001,0)" xlink:href="#m"/><use transform="matrix(0.05,0,0,0.05,78.80000000000001,0)" xlink:href="#r"/><path fill="#8080ff" d="M-.9 1.25h89.6v1.32H-.9z"/></g><path fill="#979ea8" d="M127-220V0H93v-220H8v-28h204v28h-85" id="D"/><path fill="#979ea8" d="M179-190L93 31C79 59 56 82 12 73V49c39 6 53-20 64-50L1-190h34L92-34l54-156h33" id="E"/><path fill="#979ea8" d="M115-194c55 1 70 41 70 98S169 2 115 4C84 4 66-9 55-30l1 105H24l-1-265h31l2 30c10-21 28-34 59-34zm-8 174c40 0 45-34 45-75s-6-73-45-74c-42 0-51 32-51 76 0 43 10 73 51 73" id="F"/><path fill="#979ea8" d="M100-194c63 0 86 42 84 106H49c0 40 14 67 53 68 26 1 43-12 49-29l28 8c-11 28-37 45-77 45C44 4 14-33 15-96c1-61 26-98 85-98zm52 81c6-60-76-77-97-28-3 7-6 17-6 28h103" id="G"/><g id="g"><use transform="matrix(0.05,0,0,0.05,0,0)" xlink:href="#D"/><use transform="matrix(0.05,0,0,0.05,9.950000000000001,0)" xlink:href="#E"/><use transform="matrix(0.05,0,0,0.05,18.950000000000003,0)" xlink:href="#F"/><use transform="matrix(0.05,0,0,0.05,28.950000000000003,0)" xlink:href="#G"/></g><path fill="#979ea8" d="M135-143c-3-34-86-38-87 0 15 53 115 12 119 90S17 21 10-45l28-5c4 36 97 45 98 0-10-56-113-15-118-90-4-57 82-63 122-42 12 7 21 19 24 35" id="H"/><path fill="#979ea8" d="M100-194c62-1 85 37 85 99 1 63-27 99-86 99S16-35 15-95c0-66 28-99 85-99zM99-20c44 1 53-31 53-75 0-43-8-75-51-75s-53 32-53 75 10 74 51 75" id="I"/><path fill="#979ea8" d="M210-169c-67 3-38 105-44 169h-31v-121c0-29-5-50-35-48C34-165 62-65 56 0H25l-1-190h30c1 10-1 24 2 32 10-44 99-50 107 0 11-21 27-35 58-36 85-2 47 119 55 194h-31v-121c0-29-5-49-35-48" id="J"/><path fill="#979ea8" d="M59-47c-2 24 18 29 38 22v24C64 9 27 4 27-40v-127H5v-23h24l9-43h21v43h35v23H59v120" id="K"/><path fill="#979ea8" d="M106-169C34-169 62-67 57 0H25v-261h32l-1 103c12-21 28-36 61-36 89 0 53 116 60 194h-32v-121c2-32-8-49-39-48" id="L"/><path fill="#979ea8" d="M24-231v-30h32v30H24zM24 0v-190h32V0H24" id="M"/><path fill="#979ea8" d="M117-194c89-4 53 116 60 194h-32v-121c0-31-8-49-39-48C34-167 62-67 57 0H25l-1-190h30c1 10-1 24 2 32 11-22 29-35 61-36" id="N"/><path fill="#979ea8" d="M177-190C167-65 218 103 67 71c-23-6-38-20-44-43l32-5c15 47 100 32 89-28v-30C133-14 115 1 83 1 29 1 15-40 15-95c0-56 16-97 71-98 29-1 48 16 59 35 1-10 0-23 2-32h30zM94-22c36 0 50-32 50-73 0-42-14-75-50-75-39 0-46 34-46 75s6 73 46 73" id="O"/><g id="h"><use transform="matrix(0.05,0,0,0.05,0,0)" xlink:href="#H"/><use transform="matrix(0.05,0,0,0.05,9,0)" xlink:href="#I"/><use transform="matrix(0.05,0,0,0.05,19,0)" xlink:href="#J"/><use transform="matrix(0.05,0,0,0.05,33.95,0)" xlink:href="#G"/><use transform="matrix(0.05,0,0,0.05,43.95,0)" xlink:href="#K"/><use transform="matrix(0.05,0,0,0.05,48.95,0)" xlink:href="#L"/><use transform="matrix(0.05,0,0,0.05,58.95,0)" xlink:href="#M"/><use transform="matrix(0.05,0,0,0.05,62.900000000000006,0)" xlink:href="#N"/><use transform="matrix(0.05,0,0,0.05,72.9,0)" xlink:href="#O"/></g><path d="M169-182c-1-43-94-46-97-3 18 66 151 10 154 114 3 95-165 93-204 36-6-8-10-19-12-30l50-8c3 46 112 56 116 5-17-69-150-10-154-114-4-87 153-88 188-35 5 8 8 18 10 28" id="P"/><path d="M135-150c-39-12-60 13-60 57V0H25l-1-190h47c2 13-1 29 3 40 6-28 27-53 61-41v41" id="Q"/><path d="M25-224v-37h50v37H25zM25 0v-190h50V0H25" id="R"/><path d="M135-194c87-1 58 113 63 194h-50c-7-57 23-157-34-157-59 0-34 97-39 157H25l-1-190h47c2 12-1 28 3 38 12-26 28-41 61-42" id="S"/><path d="M62-158H24l-5-90h48" id="T"/><path d="M137-138c1-29-70-34-71-4 15 46 118 7 119 86 1 83-164 76-172 9l43-7c4 19 20 25 44 25 33 8 57-30 24-41C81-84 22-81 20-136c-2-80 154-74 161-7" id="U"/><g id="i"><use transform="matrix(0.05555555555555555,0,0,0.05555555555555555,0,0)" xlink:href="#P"/><use transform="matrix(0.05555555555555555,0,0,0.05555555555555555,13.333333333333332,0)" xlink:href="#Q"/><use transform="matrix(0.05555555555555555,0,0,0.05555555555555555,21.11111111111111,0)" xlink:href="#R"/><use transform="matrix(0.05555555555555555,0,0,0.05555555555555555,26.666666666666664,0)" xlink:href="#S"/><use transform="matrix(0.05555555555555555,0,0,0.05555555555555555,38.83333333333333,0)" xlink:href="#R"/><use transform="matrix(0.05555555555555555,0,0,0.05555555555555555,44.388888888888886,0)" xlink:href="#T"/><use transform="matrix(0.05555555555555555,0,0,0.05555555555555555,49.11111111111111,0)" xlink:href="#U"/><path fill="#8080ff" d="M-1 1.07h67.78v2.1H-1z"/></g><path d="M115-3C79 11 28 4 28-45v-112H4v-33h27l15-45h31v45h36v33H77v99c-1 23 16 31 38 25v30" id="V"/><path d="M110-194c64 0 96 36 96 99 0 64-35 99-97 99-61 0-95-36-95-99 0-62 34-99 96-99zm-1 164c35 0 45-28 45-65 0-40-10-65-43-65-34 0-45 26-45 65 0 36 10 65 43 65" id="W"/><path d="M185-48c-13 30-37 53-82 52C43 2 14-33 14-96s30-98 90-98c62 0 83 45 84 108H66c0 31 8 55 39 56 18 0 30-7 34-22zm-45-69c5-46-57-63-70-21-2 6-4 13-4 21h74" id="X"/><g id="j"><use transform="matrix(0.05555555555555555,0,0,0.05555555555555555,0,0)" xlink:href="#P"/><use transform="matrix(0.05555555555555555,0,0,0.05555555555555555,13.333333333333332,0)" xlink:href="#V"/><use transform="matrix(0.05555555555555555,0,0,0.05555555555555555,19.944444444444443,0)" xlink:href="#W"/><use transform="matrix(0.05555555555555555,0,0,0.05555555555555555,32.11111111111111,0)" xlink:href="#Q"/><use transform="matrix(0.05555555555555555,0,0,0.05555555555555555,39.888888888888886,0)" xlink:href="#R"/><use transform="matrix(0.05555555555555555,0,0,0.05555555555555555,45.44444444444444,0)" xlink:href="#X"/><use transform="matrix(0.05555555555555555,0,0,0.05555555555555555,56.55555555555556,0)" xlink:href="#U"/><path fill="#8080ff" d="M-1 1.07h69.67v2.1H-1z"/></g></defs></g></svg>